<?xml version="1.0" encoding="UTF-8" standalone="no"?>
<!-- Created with Inkscape (http://www.inkscape.org/) -->

<svg
   xmlns:dc="http://purl.org/dc/elements/1.1/"
   xmlns:cc="http://creativecommons.org/ns#"
   xmlns:rdf="http://www.w3.org/1999/02/22-rdf-syntax-ns#"
   xmlns:svg="http://www.w3.org/2000/svg"
   xmlns="http://www.w3.org/2000/svg"
   xmlns:sodipodi="http://sodipodi.sourceforge.net/DTD/sodipodi-0.dtd"
   xmlns:inkscape="http://www.inkscape.org/namespaces/inkscape"
   width="37.0574mm"
   height="40.965828mm"
   viewBox="0 0 37.057403 40.965827"
   version="1.1"
   id="svg8"
   inkscape:version="0.92.3 (2405546, 2018-03-11)"
   sodipodi:docname="3.svg">
  <defs
     id="defs2" />
  <sodipodi:namedview
     id="base"
     pagecolor="#ffffff"
     bordercolor="#666666"
     borderopacity="1.0"
     inkscape:pageopacity="0.0"
     inkscape:pageshadow="2"
     inkscape:zoom="9.221108"
     inkscape:cx="2.4986097"
     inkscape:cy="35.56016"
     inkscape:document-units="mm"
     inkscape:current-layer="layer1"
     showgrid="false"
     inkscape:window-width="1315"
     inkscape:window-height="713"
     inkscape:window-x="51"
     inkscape:window-y="27"
     inkscape:window-maximized="1"
     inkscape:snap-global="false" />
  <metadata
     id="metadata5">
    <rdf:RDF>
      <cc:Work
         rdf:about="">
        <dc:format>image/svg+xml</dc:format>
        <dc:type
           rdf:resource="http://purl.org/dc/dcmitype/StillImage" />
        <dc:title />
      </cc:Work>
    </rdf:RDF>
  </metadata>
  <g
     inkscape:label="Layer 1"
     inkscape:groupmode="layer"
     id="layer1"
     transform="translate(-84.921862,-15.067079)">
    <g
       aria-label="ض"
       style="font-style:normal;font-weight:normal;font-size:2.89380884px;line-height:1.25;font-family:sans-serif;letter-spacing:0px;word-spacing:0px;fill:#182344;fill-opacity:1;stroke:none;stroke-width:0.4340713"
       id="text825">
      <path
         d="m 100.36757,40.994144 h -0.0543 q -0.587808,0.01809 -1.076138,0.578761 -0.48833,0.560676 -1.139437,1.528293 h 0.08139 q 1.935235,0 3.210315,-1.609681 l -0.1266,-0.135647 q -0.36173,-0.361726 -0.89527,-0.361726 z m 0.68728,-1.528293 q 0.4612,0 0.74153,0.325553 0.28034,0.316511 0.28034,0.877186 0,0.560676 -0.50641,1.510207 -0.50642,0.949531 -0.97667,1.555422 -0.886224,1.030919 -1.962359,1.356473 -0.850057,0.198949 -1.410732,0.226079 -0.560676,0.02713 -0.741539,0.162776 -0.4612,4.485404 -2.622514,7.569119 -2.197486,2.966154 -5.281201,2.98424 -1.537336,-0.08139 -2.568255,-1.030919 -1.03092,-0.949531 -1.085178,-2.685816 0.04521,-2.785291 1.781501,-6.067956 l 0.325553,-0.669193 q 0.01809,-0.009 0.05426,-0.009 0.03617,0 0.03617,0.180863 0,0.180863 -0.19895,0.66015 -1.030919,2.595385 -1.030919,3.924728 v 0.126604 q 0.14469,1.365516 1.103264,1.998537 0.958575,0.633021 2.287918,0.696323 1.754372,0 3.391182,-0.940488 1.202739,-0.795798 1.944278,-2.016623 1.058049,-1.609681 1.058049,-4.394972 v -0.48833 l 0.009,-0.623978 q 0,-1.654897 1.030919,-1.654897 l 0.886229,0.08139 q 0.117561,-0.153734 0.804841,-1.130395 0.696323,-0.97666 1.076135,-1.46499 0.831978,-1.058049 1.546388,-1.058049 z m -2.043757,-4.15985 q -0.01809,0.651107 -0.949531,1.63681 -0.262251,0.262252 -0.479287,0.271295 -0.08139,0 -0.542589,-0.397899 -0.461201,-0.397898 -0.850057,-0.642064 -0.04521,-0.07234 -0.04521,-0.09947 0,-0.02713 0.04521,-0.09947 l 1.37456,-2.116098 q 0.0633,-0.07234 0.117561,-0.07234 0.05426,0 0.397898,0.217036 0.741539,0.461201 0.913359,1.157523 0.01809,0.09043 0.01809,0.144691 z"
         style="font-style:normal;font-variant:normal;font-weight:normal;font-stretch:normal;font-size:18.52037621px;font-family:IranNastaliq-Web;-inkscape-font-specification:IranNastaliq-Web;fill:#182344;fill-opacity:1;stroke-width:0.4340713"
         id="path2320"
         inkscape:connector-curvature="0" />
    </g>
    <path
       style="fill:#182344;fill-opacity:0.82926827;stroke:none;stroke-width:0.065;stroke-linecap:butt;stroke-linejoin:miter;stroke-miterlimit:4;stroke-dasharray:none;stroke-opacity:1"
       d="m 88.341217,47.371259 c 0,0 -0.0789,0.64011 -0.56355,0.91993 -0.43891,0.11761 0.67087,0.65905 0.84214,0.83032 0.29744,0.0797 0.59167,-0.36827 0.94523,-0.98066 0.14914,-0.25832 -1.22382,-0.76959 -1.22382,-0.76959 z"
       id="path830"
       inkscape:connector-curvature="0"
       sodipodi:nodetypes="cccsc" />
    <path
       style="fill:#182344;fill-opacity:0.60975611;stroke:none;stroke-width:0.065;stroke-linecap:butt;stroke-linejoin:miter;stroke-miterlimit:4;stroke-dasharray:none;stroke-opacity:1"
       d="m 88.341217,49.172869 c 0,0 -0.0789,0.64011 -0.56355,0.91993 -0.43891,0.11761 0.67087,0.65905 0.84214,0.83032 0.29744,0.0797 0.59167,-0.36827 0.94523,-0.98066 0.14914,-0.25832 -1.22382,-0.76959 -1.22382,-0.76959 z"
       id="path830-3"
       inkscape:connector-curvature="0"
       sodipodi:nodetypes="cccsc" />
    <path
       style="fill:#182344;fill-opacity:0.3658537;stroke:none;stroke-width:0.065;stroke-linecap:butt;stroke-linejoin:miter;stroke-miterlimit:4;stroke-dasharray:none;stroke-opacity:1"
       d="m 88.341217,50.974479 c 0,0 -0.0789,0.64011 -0.56355,0.91993 -0.43891,0.11761 0.67087,0.65905 0.84214,0.83032 0.29744,0.0797 0.59167,-0.36827 0.94523,-0.98066 0.14914,-0.25832 -1.22382,-0.76959 -1.22382,-0.76959 z"
       id="path830-6"
       inkscape:connector-curvature="0"
       sodipodi:nodetypes="cccsc" />
    <path
       style="opacity:0.893;fill:#579492;fill-opacity:1;stroke:none;stroke-width:0.26458332px;stroke-linecap:butt;stroke-linejoin:miter;stroke-opacity:1"
       d="m 115.13205,15.334348 c 0,0 -2.67268,8.418985 -4.14266,8.552625 -1.47,0.13363 -1.0691,-8.819894 -1.0691,-8.819894 0,0 -2.00451,4.944486 -1.46997,5.612654 0.53454,0.66818 2.40543,8.552626 4.27633,8.151726 1.87087,-0.40091 4.6772,-4.677216 6.14719,-9.087164 -1.06908,-2.271791 -2.80633,-3.340869 -3.74179,-4.409947 z"
       id="path869"
       inkscape:connector-curvature="0"
       sodipodi:nodetypes="cscsccc" />
    <path
       style="opacity:0.893;fill:#6eb7c1;fill-opacity:1;stroke:none;stroke-width:0.14364861px;stroke-linecap:butt;stroke-linejoin:miter;stroke-opacity:1"
       d="m 100.69989,48.276067 0.11394,-1.888529 c 0,0 5.65689,-2.379283 5.78789,-9.819172 0.42597,1.625632 0.96555,7.92973 -5.9018,11.707701 z"
       id="path871"
       inkscape:connector-curvature="0"
       sodipodi:nodetypes="cccc" />
    <path
       style="opacity:0.893;fill:#6e80c1;fill-opacity:1;stroke:none;stroke-width:0.38406751px;stroke-linecap:butt;stroke-linejoin:miter;stroke-opacity:1"
       d="m 108.30804,25.849802 c 0.12494,-1.611474 0.0619,-2.295191 -0.53642,-3.035894 -0.5982,-0.74074 -3.48026,-1.634273 -3.64071,0.740691 -0.16043,2.374981 2.91924,8.660427 3.01281,9.482799 0.0936,0.822372 -4.13999,-6.376481 -9.706239,-4.598945 -0.0677,0.712095 -0.116528,1.883467 0.59986,2.86212 0.278741,0.380702 2.295359,0.470048 3.572259,0.335156 0.27895,0.03017 0.1153,-0.664679 0.1153,-0.664679 0,0 3.98935,2.365438 6.11041,4.48689 2.12113,2.121406 -2.63275,-8.810481 -2.51972,-9.881634 0.1131,-1.071153 1.73004,-0.583061 2.99253,0.273535 z"
       id="path873"
       inkscape:connector-curvature="0"
       sodipodi:nodetypes="ccsccscccscc" />
    <path
       style="opacity:0.893;fill:#9780c1;fill-opacity:1;stroke:none;stroke-width:0.26458332px;stroke-linecap:butt;stroke-linejoin:miter;stroke-opacity:1"
       d="m 113.14409,33.608162 c 0.047,3.638022 -1.3703,7.370535 -10.0164,17.197916 -0.2835,0.425224 -0.3308,3.212799 1.0866,3.02381 1.4174,-0.188988 17.8041,-5.597505 17.7649,-10.063615 -0.047,-5.38616 -9.4966,-2.787576 -11.0558,-4.913692 -1.6995,-2.317547 -0.4724,4.393973 8.5517,3.779761 3.4491,0.755953 -11.7172,6.661833 -11.7172,6.661833 0,0 7.2066,-7.538278 6.6146,-15.780507 -0.2523,-2.734863 -1.1643,-2.408545 -1.2284,0.09449 z"
       id="path877"
       inkscape:connector-curvature="0"
       sodipodi:nodetypes="ccssscccc" />
    <path
       style="opacity:0.893;fill:#652143;fill-opacity:0.65098039;stroke:none;stroke-width:0.13021114px;stroke-linecap:butt;stroke-linejoin:miter;stroke-opacity:1"
       d="m 98.435929,46.979752 c 0,0 -1.498547,7.548938 0.918034,7.342226 1.659477,-0.149538 0.816367,-2.938926 0.816367,-2.938926 0,0 0.14415,1.321069 -0.41403,1.36523 -2.197114,0.312186 -0.695355,-5.7275 -1.320371,-5.76853 z"
       id="path879"
       inkscape:connector-curvature="0"
       sodipodi:nodetypes="ccccc" />
    <path
       style="fill:#182344;fill-opacity:0.82926827;stroke:none;stroke-width:0.065;stroke-linecap:butt;stroke-linejoin:miter;stroke-miterlimit:4;stroke-dasharray:none;stroke-opacity:1"
       d="m 88.341217,45.569649 c 0,0 -0.0789,0.64011 -0.56355,0.91993 -0.43891,0.11761 0.67087,0.65905 0.84214,0.83032 0.29744,0.0797 0.59167,-0.36827 0.94523,-0.98066 0.14914,-0.25832 -1.22382,-0.76959 -1.22382,-0.76959 z"
       id="path830-9"
       inkscape:connector-curvature="0"
       sodipodi:nodetypes="cccsc" />
  </g>
</svg>
